name Walk8.mot
datacolumns 19
datarows 10
range 2.24000000 2.28500000
endheader

                time	   L_ground_force_vx	   L_ground_force_vy	   L_ground_force_vz	   L_ground_force_px	   L_ground_force_py	   L_ground_force_pz	   R_ground_force_vx	   R_ground_force_vy	   R_ground_force_vz	   R_ground_force_px	   R_ground_force_py	   R_ground_force_pz	   L_ground_torque_x	   L_ground_torque_y	   L_ground_torque_z	   R_ground_torque_x	   R_ground_torque_y	   R_ground_torque_z	
          2.24000000	          0.00000000	          0.00000000	          0.00000000	         -0.00000000	          0.00000000	         -0.00000000	          2.72879568	         14.72607599	          1.87823067	          0.16005662	          0.00000000	          0.03520828	          0.00000000	          0.00000000	          0.00000000	          0.00000000	          0.02925918	          0.00000000	
          2.24500000	          0.00000000	          0.00000000	         -0.00000000	         -0.00000000	          0.00000000	         -0.00000000	          0.41686751	          6.28478687	          1.44881679	          0.12182216	          0.00000000	          0.02643953	          0.00000000	          0.00000000	          0.00000000	          0.00000000	          0.03264762	          0.00000000	
          2.25000000	          0.00000000	          0.00000000	         -0.00000000	         -0.00000000	          0.00000000	         -0.00000000	         -1.09869642	          0.37450102	          1.05885810	          0.08766849	          0.00000000	          0.01872525	          0.00000000	          0.00000000	          0.00000000	          0.00000000	          0.03223853	          0.00000000	
          2.25500000	          0.00000000	          0.00000000	         -0.00000000	         -0.00000000	          0.00000000	         -0.00000000	         -1.98370460	         -3.44526930	          0.72504227	          0.05883288	          0.00000000	          0.01229729	          0.00000000	          0.00000000	          0.00000000	          0.00000000	          0.02942651	          0.00000000	
          2.26000000	          0.00000000	          0.00000000	         -0.00000000	         -0.00000000	          0.00000000	         -0.00000000	         -2.39435616	         -5.62233487	          0.45363057	          0.03568819	          0.00000000	          0.00720260	          0.00000000	          0.00000000	          0.00000000	          0.00000000	          0.02529594	          0.00000000	
          2.26500000	          0.00000000	          0.00000000	         -0.00000000	         -0.00000000	          0.00000000	         -0.00000000	         -2.46833443	         -6.57378613	          0.24370281	          0.01802345	          0.00000000	          0.00336583	          0.00000000	          0.00000000	          0.00000000	          0.00000000	          0.02064648	          0.00000000	
          2.27000000	         -0.00000000	         -0.00000000	         -0.00000000	         -0.00000000	          0.00000000	         -0.00000000	         -2.32055985	         -6.66402640	          0.08980626	          0.00526995	          0.00000000	          0.00063919	          0.00000000	          0.00000000	          0.00000000	          0.00000000	          0.01603198	          0.00000000	
          2.27500000	         -0.00000000	         -0.00000000	         -0.00000000	         -0.00000000	          0.00000000	         -0.00000000	         -2.04226665	         -6.19485183	         -0.01598721	         -0.00332541	          0.00000000	         -0.00115990	          0.00000000	          0.00000000	          0.00000000	          0.00000000	          0.01180486	          0.00000000	
          2.28000000	         -0.00000000	         -0.00000000	         -0.00000000	         -0.00000000	          0.00000000	         -0.00000000	         -1.70228401	         -5.40404138	         -0.08256611	         -0.00857444	          0.00000000	         -0.00222189	          0.00000000	          0.00000000	          0.00000000	          0.00000000	          0.00816047	          0.00000000	
          2.28500000	         -0.00000000	         -0.00000000	         -0.00000000	         -0.00000000	          0.00000000	         -0.00000000	         -1.34962965	         -4.46951563	         -0.11873189	         -0.01126241	          0.00000000	         -0.00272720	          0.00000000	          0.00000000	          0.00000000	          0.00000000	          0.00517799	          0.00000000	
